<mxfile host="65bd71144e">
    <diagram id="LMcskf2OUFfgnVeXwqW-" name="Page-1">
        <mxGraphModel dx="1605" dy="678" grid="1" gridSize="10" guides="1" tooltips="1" connect="1" arrows="1" fold="1" page="1" pageScale="1" pageWidth="1100" pageHeight="850" math="0" shadow="0">
            <root>
                <mxCell id="0"/>
                <mxCell id="1" parent="0"/>
                <mxCell id="2" value="&lt;b&gt;Hub&lt;br&gt;&lt;/b&gt;&lt;b style=&quot;border-color: var(--border-color);&quot;&gt;10.0.0.0/24&lt;br style=&quot;border-color: var(--border-color);&quot;&gt;VM .4&lt;/b&gt;&lt;b&gt;&lt;br&gt;&lt;/b&gt;" style="whiteSpace=wrap;html=1;fillColor=#dae8fc;strokeColor=#6c8ebf;dashed=1;fontSize=14;" parent="1" vertex="1">
                    <mxGeometry x="450" y="114" width="190" height="120" as="geometry"/>
                </mxCell>
                <mxCell id="3" value="" style="aspect=fixed;html=1;points=[];align=center;image;fontSize=14;image=img/lib/azure2/networking/Virtual_Networks.svg;dashed=1;" parent="1" vertex="1">
                    <mxGeometry x="606.5" y="147" width="33.5" height="20" as="geometry"/>
                </mxCell>
                <mxCell id="14" style="edgeStyle=none;html=1;endArrow=none;endFill=0;entryX=0.962;entryY=0.947;entryDx=0;entryDy=0;entryPerimeter=0;fontSize=14;" parent="1" source="4" target="21" edge="1">
                    <mxGeometry relative="1" as="geometry">
                        <mxPoint x="350" y="382" as="targetPoint"/>
                    </mxGeometry>
                </mxCell>
                <mxCell id="15" value="Optional Peering" style="edgeStyle=none;html=1;endArrow=none;endFill=0;entryX=0.5;entryY=1;entryDx=0;entryDy=0;fontSize=14;" parent="1" target="2" edge="1">
                    <mxGeometry relative="1" as="geometry">
                        <mxPoint x="545" y="332" as="sourcePoint"/>
                    </mxGeometry>
                </mxCell>
                <mxCell id="18" value="" style="edgeStyle=none;html=1;endArrow=none;endFill=0;fontSize=14;" parent="1" source="4" target="10" edge="1">
                    <mxGeometry relative="1" as="geometry"/>
                </mxCell>
                <mxCell id="4" value="&lt;b&gt;Vendor &lt;br&gt;Hub&lt;br&gt;10.10.0.0/24&lt;br&gt;VM .4&lt;br&gt;&lt;/b&gt;" style="whiteSpace=wrap;html=1;fillColor=#dae8fc;strokeColor=#6c8ebf;dashed=1;fontSize=14;" parent="1" vertex="1">
                    <mxGeometry x="450" y="326" width="190" height="120" as="geometry"/>
                </mxCell>
                <mxCell id="5" value="" style="aspect=fixed;html=1;points=[];align=center;image;fontSize=14;image=img/lib/azure2/networking/Virtual_Networks.svg;dashed=1;" parent="1" vertex="1">
                    <mxGeometry x="606.5" y="326" width="33.5" height="20" as="geometry"/>
                </mxCell>
                <mxCell id="6" value="&lt;font style=&quot;font-size: 12px;&quot; face=&quot;Helvetica&quot;&gt;ERGW&lt;/font&gt;" style="aspect=fixed;html=1;points=[];align=center;image;fontSize=14;image=img/lib/azure2/networking/Virtual_Network_Gateways.svg;glass=0;dashed=1;dashPattern=8 8;strokeColor=#E6E6E6;fontColor=#000000;fillColor=#CCCCCC;rounded=0;sketch=1;hachureGap=4;jiggle=2;curveFitting=1;fontFamily=Architects Daughter;fontSource=https%3A%2F%2Ffonts.googleapis.com%2Fcss%3Ffamily%3DArchitects%2BDaughter;labelBackgroundColor=none;fontStyle=1;spacing=-4;" parent="1" vertex="1">
                    <mxGeometry x="462.41" y="147" width="33.92" height="45" as="geometry"/>
                </mxCell>
                <mxCell id="7" value="On-premies&lt;br style=&quot;font-size: 14px;&quot;&gt;192.168.100.0/24&lt;br&gt;VM .2" style="whiteSpace=wrap;html=1;fillColor=#f5f5f5;strokeColor=#666666;dashed=1;labelBackgroundColor=none;gradientColor=#b3b3b3;fontStyle=1;fontSize=14;" parent="1" vertex="1">
                    <mxGeometry x="30" y="217.5" width="190" height="120" as="geometry"/>
                </mxCell>
                <mxCell id="9" value="&lt;span style=&quot;font-family: Helvetica; font-size: 12px;&quot;&gt;ERGW&lt;/span&gt;" style="aspect=fixed;html=1;points=[];align=center;image;fontSize=14;image=img/lib/azure2/networking/Virtual_Network_Gateways.svg;glass=0;dashed=1;dashPattern=8 8;strokeColor=#E6E6E6;fontColor=#000000;fillColor=#CCCCCC;rounded=0;sketch=1;hachureGap=4;jiggle=2;curveFitting=1;fontFamily=Architects Daughter;fontSource=https%3A%2F%2Ffonts.googleapis.com%2Fcss%3Ffamily%3DArchitects%2BDaughter;labelBackgroundColor=none;fontStyle=1;labelPosition=center;verticalLabelPosition=bottom;verticalAlign=top;spacing=-4;" parent="1" vertex="1">
                    <mxGeometry x="463.92" y="337.5" width="32.41" height="43" as="geometry"/>
                </mxCell>
                <mxCell id="13" style="edgeStyle=none;html=1;endArrow=none;endFill=0;fontSize=14;" parent="1" source="10" edge="1">
                    <mxGeometry relative="1" as="geometry">
                        <mxPoint x="545" y="452" as="targetPoint"/>
                    </mxGeometry>
                </mxCell>
                <mxCell id="10" value="Vendor Transit VNET&lt;br&gt;10.20.0.0/24&lt;br&gt;&lt;font color=&quot;#ff3333&quot;&gt;Transit &lt;/font&gt;&lt;br&gt;&lt;font color=&quot;#ff3333&quot;&gt;Firewall (TFW)&lt;br&gt;&lt;/font&gt;&lt;span style=&quot;color: rgb(41, 40, 39); font-family: az_ea_font, &amp;quot;Segoe UI&amp;quot;, az_font, system-ui, -apple-system, BlinkMacSystemFont, Roboto, Oxygen, Ubuntu, Cantarell, &amp;quot;Open Sans&amp;quot;, &amp;quot;Helvetica Neue&amp;quot;, sans-serif; font-size: 13px; font-weight: 400; text-align: start; background-color: rgb(243, 242, 241);&quot;&gt;10.20.0.68&lt;/span&gt;&lt;br&gt;VM .4" style="whiteSpace=wrap;html=1;fillColor=#ffcccc;strokeColor=#36393d;dashed=1;fontStyle=1;fontSize=14;" parent="1" vertex="1">
                    <mxGeometry x="450" y="512" width="190" height="120" as="geometry"/>
                </mxCell>
                <mxCell id="11" value="&lt;b style=&quot;font-size: 14px;&quot;&gt;Vendor1&lt;br style=&quot;font-size: 14px;&quot;&gt;172.16.1.0/24&lt;br&gt;VM .4&lt;br style=&quot;font-size: 14px;&quot;&gt;&lt;/b&gt;" style="whiteSpace=wrap;html=1;fillColor=#e1d5e7;strokeColor=#9673a6;dashed=1;fontSize=14;align=center;labelPosition=center;verticalLabelPosition=middle;verticalAlign=middle;" parent="1" vertex="1">
                    <mxGeometry x="730" y="453" width="160" height="120" as="geometry"/>
                </mxCell>
                <mxCell id="16" value="" style="edgeStyle=none;html=1;endArrow=none;endFill=0;entryX=1;entryY=0.5;entryDx=0;entryDy=0;fontSize=14;" parent="1" source="12" target="4" edge="1">
                    <mxGeometry relative="1" as="geometry"/>
                </mxCell>
                <mxCell id="12" value="Empty VNET&lt;br style=&quot;font-size: 14px;&quot;&gt;172.16.1.24&lt;br&gt;172.16.2.24" style="whiteSpace=wrap;html=1;fillColor=#ffcc99;strokeColor=#36393d;dashed=1;fontStyle=1;fontSize=14;" parent="1" vertex="1">
                    <mxGeometry x="729" y="347" width="161" height="75" as="geometry"/>
                </mxCell>
                <mxCell id="17" style="edgeStyle=none;html=1;endArrow=none;endFill=0;exitX=1;exitY=0.5;exitDx=0;exitDy=0;entryX=0;entryY=0.5;entryDx=0;entryDy=0;fontSize=14;" parent="1" source="10" target="11" edge="1">
                    <mxGeometry relative="1" as="geometry">
                        <mxPoint x="555" y="462" as="targetPoint"/>
                        <mxPoint x="555" y="522" as="sourcePoint"/>
                    </mxGeometry>
                </mxCell>
                <mxCell id="23" value="" style="edgeStyle=none;html=1;endArrow=none;endFill=0;entryX=1;entryY=0.5;entryDx=0;entryDy=0;fontSize=14;exitX=0.212;exitY=0.974;exitDx=0;exitDy=0;exitPerimeter=0;" parent="1" source="21" target="7" edge="1">
                    <mxGeometry relative="1" as="geometry">
                        <mxPoint x="320" y="392" as="sourcePoint"/>
                    </mxGeometry>
                </mxCell>
                <mxCell id="24" style="edgeStyle=none;html=1;entryX=0;entryY=0.5;entryDx=0;entryDy=0;endArrow=none;endFill=0;exitX=0.626;exitY=0.021;exitDx=0;exitDy=0;exitPerimeter=0;fontSize=14;" parent="1" source="21" target="2" edge="1">
                    <mxGeometry relative="1" as="geometry"/>
                </mxCell>
                <mxCell id="21" value="MSEE&lt;br&gt;10G" style="aspect=fixed;html=1;points=[];align=center;image;fontSize=14;image=img/lib/azure2/networking/ExpressRoute_Circuits.svg;labelBackgroundColor=none;fillColor=#CCCCFF;fontStyle=1" parent="1" vertex="1">
                    <mxGeometry x="320" y="210" width="41.56" height="38" as="geometry"/>
                </mxCell>
                <mxCell id="25" value="" style="aspect=fixed;html=1;points=[];align=center;image;fontSize=14;image=img/lib/azure2/networking/Virtual_Networks.svg;dashed=1;" parent="1" vertex="1">
                    <mxGeometry x="606.5" y="512" width="33.5" height="20" as="geometry"/>
                </mxCell>
                <mxCell id="26" value="" style="aspect=fixed;html=1;points=[];align=center;image;fontSize=14;image=img/lib/azure2/networking/Virtual_Networks.svg;dashed=1;" parent="1" vertex="1">
                    <mxGeometry x="860" y="458" width="26.5" height="15.82" as="geometry"/>
                </mxCell>
                <mxCell id="27" value="" style="aspect=fixed;html=1;points=[];align=center;image;fontSize=14;image=img/lib/azure2/networking/Virtual_Networks.svg;dashed=1;" parent="1" vertex="1">
                    <mxGeometry x="870" y="349" width="20" height="11.94" as="geometry"/>
                </mxCell>
                <mxCell id="29" style="edgeStyle=none;html=1;entryX=1;entryY=0.5;entryDx=0;entryDy=0;endArrow=none;endFill=0;exitX=0;exitY=0.5;exitDx=0;exitDy=0;fontSize=14;" parent="1" source="28" target="10" edge="1">
                    <mxGeometry relative="1" as="geometry"/>
                </mxCell>
                <mxCell id="28" value="&lt;b style=&quot;font-size: 14px;&quot;&gt;Vendor2&lt;br style=&quot;font-size: 14px;&quot;&gt;172.16.2.0/24&lt;br&gt;&lt;/b&gt;&lt;b style=&quot;border-color: var(--border-color);&quot;&gt;VM.4&lt;/b&gt;&lt;b style=&quot;font-size: 14px;&quot;&gt;&lt;br style=&quot;font-size: 14px;&quot;&gt;&lt;/b&gt;" style="whiteSpace=wrap;html=1;fillColor=#e1d5e7;strokeColor=#9673a6;dashed=1;fontSize=14;" parent="1" vertex="1">
                    <mxGeometry x="730" y="582" width="160" height="120" as="geometry"/>
                </mxCell>
                <mxCell id="30" value="" style="aspect=fixed;html=1;points=[];align=center;image;fontSize=14;image=img/lib/azure2/networking/Virtual_Networks.svg;dashed=1;" parent="1" vertex="1">
                    <mxGeometry x="860" y="582" width="26.5" height="15.82" as="geometry"/>
                </mxCell>
                <mxCell id="35" value="" style="group" parent="1" vertex="1" connectable="0">
                    <mxGeometry x="719" y="92" width="171" height="70" as="geometry"/>
                </mxCell>
                <mxCell id="32" value="&lt;font color=&quot;#000000&quot;&gt;&lt;b&gt;Spoke1&lt;br&gt;10.0.1.0/24&lt;br&gt;VM .4&lt;/b&gt;&lt;br&gt;&lt;/font&gt;" style="whiteSpace=wrap;html=1;fillColor=#dae8fc;strokeColor=#6c8ebf;dashed=1;labelBackgroundColor=none;fontSize=14;fontColor=#FF3333;movable=1;resizable=1;rotatable=1;deletable=1;editable=1;connectable=1;" parent="35" vertex="1">
                    <mxGeometry x="8.55" width="158.5512" height="70" as="geometry"/>
                </mxCell>
                <mxCell id="33" value="" style="aspect=fixed;html=1;points=[];align=center;image;fontSize=12;image=img/lib/azure2/networking/Virtual_Networks.svg;dashed=1;labelBackgroundColor=none;fontColor=#FF3333;fillColor=#CCFFFF;movable=1;resizable=1;rotatable=1;deletable=1;editable=1;connectable=1;" parent="35" vertex="1">
                    <mxGeometry x="138.46023175895763" width="22.2775" height="13.299999999999999" as="geometry"/>
                </mxCell>
                <mxCell id="36" value="" style="group" parent="1" vertex="1" connectable="0">
                    <mxGeometry x="729" y="171" width="161" height="71" as="geometry"/>
                </mxCell>
                <mxCell id="37" value="&lt;b style=&quot;border-color: var(--border-color); color: rgb(0, 0, 0);&quot;&gt;Spoke2&lt;br style=&quot;border-color: var(--border-color);&quot;&gt;10.0.2.0/24&lt;br style=&quot;border-color: var(--border-color);&quot;&gt;VM .4&lt;/b&gt;" style="whiteSpace=wrap;html=1;fillColor=#dae8fc;strokeColor=#6c8ebf;dashed=1;labelBackgroundColor=none;fontSize=14;fontColor=#FF3333;movable=1;resizable=1;rotatable=1;deletable=1;editable=1;connectable=1;" parent="36" vertex="1">
                    <mxGeometry width="157.328990228013" height="71" as="geometry"/>
                </mxCell>
                <mxCell id="38" value="" style="aspect=fixed;html=1;points=[];align=center;image;fontSize=12;image=img/lib/azure2/networking/Virtual_Networks.svg;dashed=1;labelBackgroundColor=none;fontColor=#FF3333;fillColor=#CCFFFF;movable=1;resizable=1;rotatable=1;deletable=1;editable=1;connectable=1;" parent="36" vertex="1">
                    <mxGeometry x="130.36271849819985" width="21.27436111111111" height="12.70111111111111" as="geometry"/>
                </mxCell>
                <mxCell id="39" style="edgeStyle=none;html=1;exitX=0;exitY=0.5;exitDx=0;exitDy=0;entryX=1;entryY=0.5;entryDx=0;entryDy=0;fontSize=14;fontColor=#000000;endArrow=none;endFill=0;" parent="1" source="32" target="2" edge="1">
                    <mxGeometry relative="1" as="geometry"/>
                </mxCell>
                <mxCell id="40" style="edgeStyle=none;html=1;exitX=0;exitY=0.5;exitDx=0;exitDy=0;fontSize=14;fontColor=#000000;endArrow=none;endFill=0;entryX=1;entryY=0.5;entryDx=0;entryDy=0;" parent="1" source="37" target="2" edge="1">
                    <mxGeometry relative="1" as="geometry">
                        <mxPoint x="640" y="212" as="targetPoint"/>
                    </mxGeometry>
                </mxCell>
                <mxCell id="48" value="&lt;b&gt;&amp;nbsp; UDR&lt;/b&gt;" style="aspect=fixed;html=1;points=[];align=center;image;fontSize=12;image=img/lib/azure2/networking/Route_Tables.svg;dashed=1;labelBackgroundColor=none;strokeColor=default;fontColor=#000000;fillColor=#CCFFFF;spacing=-4;" parent="1" vertex="1">
                    <mxGeometry x="729.9999999999998" y="458" width="28.91" height="28" as="geometry"/>
                </mxCell>
                <mxCell id="113" value="" style="edgeStyle=none;html=1;shadow=0;dashed=1;fontSize=12;fontColor=#FF3333;endArrow=none;endFill=0;opacity=50;" parent="1" source="49" target="96" edge="1">
                    <mxGeometry relative="1" as="geometry"/>
                </mxCell>
                <mxCell id="49" value="" style="aspect=fixed;html=1;points=[];align=center;image;fontSize=12;image=img/lib/azure2/networking/Route_Tables.svg;dashed=1;labelBackgroundColor=none;strokeColor=default;fontColor=#000000;fillColor=#CCFFFF;" parent="1" vertex="1">
                    <mxGeometry x="455.0099999999999" y="412" width="28.91" height="28" as="geometry"/>
                </mxCell>
                <mxCell id="115" value="&lt;b&gt;&amp;nbsp; UDR&lt;/b&gt;" style="aspect=fixed;html=1;points=[];align=center;image;fontSize=12;image=img/lib/azure2/networking/Route_Tables.svg;dashed=1;labelBackgroundColor=none;strokeColor=default;fontColor=#000000;fillColor=#CCFFFF;spacing=-4;" parent="1" vertex="1">
                    <mxGeometry x="729.9999999999998" y="590" width="28.91" height="28" as="geometry"/>
                </mxCell>
                <mxCell id="68" value="Peerings" parent="0"/>
                <mxCell id="69" style="edgeStyle=none;html=1;fontSize=12;fontColor=#000000;endArrow=none;endFill=0;dashed=1;exitX=1;exitY=0.5;exitDx=0;exitDy=0;" parent="68" source="70" edge="1">
                    <mxGeometry relative="1" as="geometry">
                        <mxPoint x="545" y="484" as="targetPoint"/>
                    </mxGeometry>
                </mxCell>
                <mxCell id="70" value="&lt;b style=&quot;font-size: 12px;&quot;&gt;VNET Peering&lt;/b&gt;&lt;br style=&quot;font-size: 12px;&quot;&gt;Use Remote Gateway &lt;b&gt;Enabled&lt;/b&gt;&lt;br style=&quot;font-size: 12px;&quot;&gt;Gateway Transit &lt;b&gt;Enabled&lt;/b&gt;" style="text;strokeColor=default;align=left;fillColor=none;html=1;verticalAlign=middle;whiteSpace=wrap;rounded=0;labelBackgroundColor=none;fontSize=12;fontColor=#000000;fontStyle=0;dashed=1;" parent="68" vertex="1">
                    <mxGeometry x="239.99999999999997" y="480" width="170" height="54" as="geometry"/>
                </mxCell>
                <mxCell id="71" value="&lt;b style=&quot;font-size: 12px;&quot;&gt;VNET Peering&lt;/b&gt;&lt;br style=&quot;font-size: 12px;&quot;&gt;Use Remote Gateway &lt;b&gt;Enabled&lt;/b&gt;&lt;br style=&quot;font-size: 12px;&quot;&gt;Gateway Transit &lt;b&gt;Enabled&lt;/b&gt;" style="text;strokeColor=default;align=left;fillColor=none;html=1;verticalAlign=middle;whiteSpace=wrap;rounded=0;labelBackgroundColor=none;fontSize=12;fontColor=#000000;fontStyle=0;dashed=1;" parent="68" vertex="1">
                    <mxGeometry x="719" y="272" width="170" height="54" as="geometry"/>
                </mxCell>
                <mxCell id="72" style="edgeStyle=none;html=1;fontSize=12;fontColor=#000000;endArrow=none;endFill=0;dashed=1;entryX=0;entryY=0.5;entryDx=0;entryDy=0;" parent="68" target="71" edge="1">
                    <mxGeometry relative="1" as="geometry">
                        <mxPoint x="719" y="304.5" as="targetPoint"/>
                        <mxPoint x="680" y="382" as="sourcePoint"/>
                    </mxGeometry>
                </mxCell>
                <mxCell id="73" style="edgeStyle=none;html=1;exitX=1;exitY=0.5;exitDx=0;exitDy=0;dashed=1;fontSize=12;fontColor=#000000;endArrow=none;endFill=0;" parent="68" source="75" edge="1">
                    <mxGeometry relative="1" as="geometry">
                        <mxPoint x="700" y="622" as="targetPoint"/>
                    </mxGeometry>
                </mxCell>
                <mxCell id="74" style="edgeStyle=none;html=1;exitX=1;exitY=0.5;exitDx=0;exitDy=0;dashed=1;fontSize=12;fontColor=#000000;endArrow=none;endFill=0;" parent="68" source="75" edge="1">
                    <mxGeometry relative="1" as="geometry">
                        <mxPoint x="700" y="532" as="targetPoint"/>
                    </mxGeometry>
                </mxCell>
                <mxCell id="75" value="&lt;b style=&quot;font-size: 12px;&quot;&gt;VNET Peering&lt;/b&gt;&lt;br style=&quot;font-size: 12px;&quot;&gt;Use Remote Gateway &lt;b&gt;Disabled&lt;/b&gt;&lt;br style=&quot;font-size: 12px;&quot;&gt;Gateway Transit &lt;b&gt;Disabled&lt;/b&gt;" style="text;strokeColor=default;align=left;fillColor=none;html=1;verticalAlign=middle;whiteSpace=wrap;rounded=0;labelBackgroundColor=none;fontSize=12;fontColor=#000000;fontStyle=0;dashed=1;" parent="68" vertex="1">
                    <mxGeometry x="455.01" y="656" width="176.08" height="54" as="geometry"/>
                </mxCell>
                <mxCell id="85" value="UDR" style="" parent="0"/>
                <mxCell id="96" value="&lt;b style=&quot;font-size: 12px;&quot;&gt;Route Table&lt;br&gt;GatewaySubnet&lt;/b&gt;&lt;br style=&quot;font-size: 12px;&quot;&gt;172.16.0.0/24 -&amp;gt; &lt;b&gt;&lt;font color=&quot;#ff3333&quot;&gt;TFW&lt;/font&gt;&lt;/b&gt;&lt;br&gt;172.16.1.0/24 -&amp;gt; &lt;font color=&quot;#ff3333&quot;&gt;&lt;b&gt;TFW&lt;/b&gt;&lt;/font&gt;" style="text;strokeColor=default;align=left;fillColor=none;html=1;verticalAlign=middle;whiteSpace=wrap;rounded=0;labelBackgroundColor=none;fontSize=12;fontColor=#000000;fontStyle=0;dashed=1;" parent="85" vertex="1">
                    <mxGeometry x="249.99999999999994" y="394.75" width="130" height="62.5" as="geometry"/>
                </mxCell>
                <mxCell id="97" style="edgeStyle=none;html=1;exitX=0;exitY=0.5;exitDx=0;exitDy=0;dashed=1;fontSize=12;fontColor=#FF3333;endArrow=none;endFill=0;opacity=50;shadow=0;" parent="85" source="99" edge="1">
                    <mxGeometry relative="1" as="geometry">
                        <mxPoint x="768.9099999999999" y="484.90198469374013" as="targetPoint"/>
                    </mxGeometry>
                </mxCell>
                <mxCell id="98" style="edgeStyle=none;html=1;exitX=0;exitY=0.5;exitDx=0;exitDy=0;dashed=1;fontSize=12;fontColor=#FF3333;endArrow=none;endFill=0;opacity=50;" parent="85" source="99" target="115" edge="1">
                    <mxGeometry relative="1" as="geometry">
                        <mxPoint x="760" y="600" as="targetPoint"/>
                    </mxGeometry>
                </mxCell>
                <mxCell id="99" value="&lt;b style=&quot;font-size: 12px;&quot;&gt;Route Table&lt;br&gt;&lt;/b&gt;&lt;b&gt;VM Subnet&lt;br&gt;&lt;/b&gt;&amp;nbsp;0/0 or RFC1918 -&amp;gt; &lt;b&gt;&lt;font color=&quot;#ff3333&quot;&gt;TFW&lt;/font&gt;&lt;/b&gt;" style="text;strokeColor=default;align=left;fillColor=none;html=1;verticalAlign=middle;whiteSpace=wrap;rounded=0;labelBackgroundColor=none;fontSize=12;fontColor=#000000;fontStyle=0;dashed=1;" parent="85" vertex="1">
                    <mxGeometry x="940" y="500" width="140" height="62.5" as="geometry"/>
                </mxCell>
                <mxCell id="104" value="ERSKU" parent="0"/>
                <mxCell id="105" style="edgeStyle=none;html=1;exitX=1;exitY=0.5;exitDx=0;exitDy=0;shadow=0;dashed=1;fontSize=12;fontColor=#FF3333;endArrow=none;endFill=0;opacity=50;" parent="104" source="106" edge="1">
                    <mxGeometry relative="1" as="geometry">
                        <mxPoint x="472.40999999999985" y="172.50280898876406" as="targetPoint"/>
                    </mxGeometry>
                </mxCell>
                <mxCell id="106" value="&lt;b&gt;ER Gateway&lt;br&gt;SKU Ultra 10G&lt;br&gt;&lt;/b&gt;" style="text;strokeColor=default;align=left;fillColor=none;html=1;verticalAlign=middle;whiteSpace=wrap;rounded=0;labelBackgroundColor=none;fontSize=12;fontColor=#000000;fontStyle=0;dashed=1;" parent="104" vertex="1">
                    <mxGeometry x="290" y="135" width="112.41" height="42" as="geometry"/>
                </mxCell>
                <mxCell id="107" style="edgeStyle=none;html=1;exitX=1;exitY=0.5;exitDx=0;exitDy=0;shadow=0;dashed=1;fontSize=12;fontColor=#FF3333;endArrow=none;endFill=0;opacity=50;" parent="104" source="108" edge="1">
                    <mxGeometry relative="1" as="geometry">
                        <mxPoint x="473.9200000000001" y="362.12361934477383" as="targetPoint"/>
                    </mxGeometry>
                </mxCell>
                <mxCell id="108" value="&lt;b&gt;ER Gateway&lt;br&gt;SKU Standard 1G&lt;br&gt;&lt;/b&gt;" style="text;strokeColor=default;align=left;fillColor=none;html=1;verticalAlign=middle;whiteSpace=wrap;rounded=0;labelBackgroundColor=none;fontSize=12;fontColor=#000000;fontStyle=0;dashed=1;" parent="104" vertex="1">
                    <mxGeometry x="290.00000000000006" y="314" width="107.59" height="42" as="geometry"/>
                </mxCell>
            </root>
        </mxGraphModel>
    </diagram>
</mxfile>